<?xml version="1.0" encoding="UTF-8"?>
<svg xmlns="http://www.w3.org/2000/svg" version="1.1" viewBox="0 0 864 432">
  <defs>
    <style>
      .cls-1 {
        fill: #231f20;
      }

      .cls-2 {
        fill: none;
      }
    </style>
  </defs>
  <!-- Generator: Adobe Illustrator 28.7.1, SVG Export Plug-In . SVG Version: 1.2.0 Build 142)  -->
  <g>
    <g id="Layer_1">
      <g>
        <path class="cls-1" d="M315.31,177.46h26.9v28.49h48.25v-75.82l-46.92-51.61c2.59-2.91,5.31-5.68,8.17-8.32l49,54.07v76.28h66.62c2,3.24,5.58,5.4,9.66,5.4,6.27,0,11.34-5.08,11.34-11.34s-5.08-11.34-11.34-11.34c-4.44,0-8.28,2.55-10.14,6.26h-55.49v-70.15l-14.92-15.88,22.37-19.03,9.13,10.3.04-.03c-.48,1.26-.75,2.63-.75,4.06,0,6.27,5.08,11.34,11.34,11.34s11.34-5.08,11.34-11.34-5.08-11.34-11.34-11.34c-1.06,0-2.08.15-3.05.42l.34-.31-13.52-15.73v-32.63c3.19-.26,6.4-.39,9.66-.39,5.94,0,11.78.44,17.49,1.29-.24-1.36-.36-2.75-.36-4.18,0-4.64,1.29-8.97,3.53-12.67-6.74-1.03-13.64-1.57-20.66-1.57-74.78,0-135.4,60.62-135.4,135.4,0,62.38,42.19,114.9,99.59,130.6l5.32-16.02c-44.25-11.76-78.33-48.5-86.2-94.2ZM411.85,76.06l-22.46,19.33-29.3-32.24c14.87-11.38,32.52-19.32,51.76-22.62v35.53ZM336.72,86.91l19.64,21.57-15.8,22.01c-1.07-.33-2.2-.51-3.38-.51-6.27,0-11.34,5.08-11.34,11.34s5.08,11.34,11.34,11.34,11.34-5.08,11.34-11.34c0-1.06-.15-2.08-.42-3.05l15.56-21.53,16.06,17.31v61.22h-26.71v-28.6h-39.05c-.25-3.12-.38-6.27-.38-9.45,0-26.33,8.6-50.65,23.13-70.31Z"/>
        <path class="cls-1" d="M497.91,38.78c-3.49-1.94-7.07-3.74-10.74-5.38-.33-.15-.67-.29-1.01-.44-1.35-6.2-6.87-10.84-13.47-10.84-7.62,0-13.79,6.17-13.79,13.79s6.17,13.79,13.79,13.79c2.13,0,4.15-.48,5.96-1.35.16.07.32.13.48.2,3.76,1.63,7.42,3.45,10.96,5.45.99.56,1.97,1.14,2.95,1.72v20.92h-32.62v31.91c-3.63,1.89-6.12,5.69-6.12,10.07,0,6.27,5.08,11.34,11.34,11.34s11.34-5.08,11.34-11.34c0-4.31-2.4-8.06-5.94-9.98v-21.52h22.15v38.77l-31.38,31.18h-24.66c-1.94-3.48-5.65-5.84-9.92-5.84-6.27,0-11.34,5.08-11.34,11.34s5.08,11.34,11.34,11.34c4.24,0,7.93-2.32,9.88-5.76h28.76l15.62-15.62,17.03,18.87v46.83l19.06,20.81c-13.8,14.42-31.2,25.36-50.76,31.37h0s-24.26-26.66-24.26-26.66h-31.35v-22.54h47.51l12.35,13.11c-.37,1.12-.57,2.31-.57,3.55,0,6.27,5.08,11.34,11.34,11.34s11.34-5.08,11.34-11.34-5.08-11.34-11.34-11.34c-1.2,0-2.36.19-3.44.53l-14.65-16.41h-63.15v17.39h-15.37c-1.64-4.24-5.76-7.25-10.58-7.25-6.27,0-11.34,5.08-11.34,11.34s5.08,11.34,11.34,11.34c3.92,0,7.38-1.99,9.42-5.02h16.65v15.98h37.75l16.92,18.88c-7.56,1.51-15.37,2.31-23.37,2.31-5.8,0-11.5-.42-17.07-1.23l-5.38,16.21c7.31,1.22,14.81,1.86,22.46,1.86,74.78,0,135.4-60.62,135.4-135.39,0-50.85-28.03-95.16-69.49-118.3ZM524.87,230.69l-15.69-17.04v-18.94h5.78c1.94,3.48,5.65,5.83,9.92,5.83,6.27,0,11.34-5.08,11.34-11.34s-5.08-11.34-11.34-11.34c-4.37,0-8.16,2.48-10.06,6.1h-5.59v-16.34l-19.84-22.63,14.51-14.81V63.12c12.11,9.28,22.39,20.84,30.18,34.06h-14.15v43.86c-3.79,1.84-6.4,5.72-6.4,10.21,0,6.27,5.08,11.34,11.34,11.34s11.34-5.08,11.34-11.34c0-4.2-2.29-7.87-5.68-9.83v-33.37h9.22c6.84,14.97,10.66,31.62,10.66,49.16,0,27.75-9.55,53.28-25.54,73.46Z"/>
      </g>
      <g>
        <rect class="cls-2" y="292.48" width="864" height="139.52"/>
        <path class="cls-1" d="M88.98,363.09h-26.6v7.85c6.15.2,12.9.25,19,.25s13.25-.05,19.35-.65l.05,7.5c-8.05.55-15.7.75-23.6.75-8.5,0-17.35-.2-25.75-.75v-35.6c8.9-.55,18.25-.75,27.15-.75,7.35,0,14.5.2,22.05.75v7.5c-6.45-.6-14.2-.65-20.6-.65-5.8,0-11.95.05-17.65.2v7.95h26.55l.05,5.65Z"/>
        <path class="cls-1" d="M118.28,342.24v6.55c0,6.95.1,14.65.45,21.5,3.85.55,8,.7,11.85.7s7.95-.15,11.8-.7c.2-1.4.35-2.8.45-4.2h10.95c-.15,3.9-.45,7.5-1.1,11.6-7.4.85-14.75,1.1-22.1,1.1s-14.65-.25-22.15-1.1c-.75-9.35-1.1-19.55-1.1-28.9v-6.55h10.95Z"/>
        <path class="cls-1" d="M196.63,363.09h-26.6v7.85c6.15.2,12.9.25,19,.25s13.25-.05,19.35-.65l.05,7.5c-8.05.55-15.7.75-23.6.75-8.5,0-17.35-.2-25.75-.75v-35.6c8.9-.55,18.25-.75,27.15-.75,7.35,0,14.5.2,22.05.75v7.5c-6.45-.6-14.2-.65-20.6-.65-5.8,0-11.95.05-17.65.2v7.95h26.55l.05,5.65Z"/>
        <path class="cls-1" d="M255.23,370.29c.25-1.75.4-3.25.45-5.05h11.9c-.05,4.05-.4,7.7-1,11.7-8.55,1.3-17.05,1.85-25.55,1.85s-17.2-.55-25.8-1.85c-.7-5.7-1.1-11-1.1-16.7s.4-11,1.1-16.7c8.6-1.3,17.2-1.85,25.8-1.85s17,.4,25.55,1.45c.6,4.2.95,8,1.05,12.05h-11.95c-.05-1.7-.2-3.25-.45-5-4.65-.55-9.55-.65-14.2-.65s-9.75.1-14.5.65c-.3,3.45-.5,6.6-.5,10.05s.2,6.6.5,10.05c4.75.55,9.7.65,14.5.65s9.55-.1,14.2-.65Z"/>
        <path class="cls-1" d="M324.78,350.19c-10.7-.4-16.45-.55-20.55-.6v28.65h-10.95v-28.65c-4.1.05-9.85.2-20.5.6l-.05-7.75c8.7-.5,17.35-.7,26.05-.7s17.3.2,26.05.7l-.05,7.75Z"/>
        <path class="cls-1" d="M358.48,360.59c3.95,0,7.6-.05,11.3-.25.25-1.9.4-3.75.4-5.65s-.15-3.4-.4-5.25c-4.75-.3-9.15-.35-14.5-.35s-9.45,0-14.15.2l-.05,28.95h-10.85v-35.95c8.35-.35,16.75-.55,25.1-.55,7.55,0,17.25.45,24.95,1.55.65,3.55,1.1,7,1.1,10.55,0,4.2-.15,8.5-1.1,13-3.5.15-7.45.55-11.35.7l13.35,10.7h-13.9l-20.95-16.6v-1.1c4.05,0,7.65.05,11.05.05Z"/>
        <path class="cls-1" d="M416.58,378.79c-8.8,0-17.55-.45-26.4-1.45-.45-5.85-.7-11.3-.7-17.1s.25-11.25.7-17.1c8.85-1,17.6-1.45,26.4-1.45s17.55.45,26.35,1.45c.45,5.85.75,11.3.75,17.1s-.3,11.25-.75,17.1c-8.8,1-17.6,1.45-26.35,1.45ZM401.48,370.29c4.95.45,10.1.65,15.1.65s10.1-.2,15.05-.65c.35-3.45.55-6.6.55-10.05s-.2-6.6-.55-10.05c-4.95-.45-10.1-.65-15.05-.65s-10.15.2-15.1.65c-.35,3.45-.5,6.6-.5,10.05s.15,6.6.5,10.05Z"/>
        <path class="cls-1" d="M493.98,370.24c.35-1.2.5-3.25.6-6.55h-11.35v-6.1h22.5c-.15,10.45-.55,15.65-1.2,19.7-8.7,1.1-17.3,1.5-25.9,1.5s-17.3-.4-26.05-1.5c-.65-5.8-1.05-11.25-1.05-17.05s.35-11.55,1.05-17.45c8.75-.8,17.35-1.1,26.05-1.1s17.75.25,26.65,1.05v7.45c-6.85-.55-14.9-.65-21.7-.65-6.4,0-14.1.05-20.4.65-.35,3.45-.55,6.6-.55,10.05s.2,6.6.55,10c4.85.6,10.6.7,15.45.7s10.6-.1,15.35-.7Z"/>
        <path class="cls-1" d="M550.83,363.09h-26.6v7.85c6.15.2,12.9.25,19,.25s13.25-.05,19.35-.65l.05,7.5c-8.05.55-15.7.75-23.6.75-8.5,0-17.35-.2-25.75-.75v-35.6c8.9-.55,18.25-.75,27.15-.75,7.35,0,14.5.2,22.05.75v7.5c-6.45-.6-14.2-.65-20.6-.65-5.8,0-11.95.05-17.65.2v7.95h26.55l.05,5.65Z"/>
        <path class="cls-1" d="M622.08,378.24h-10.95v-.05l-25.9-27.85c-1.85-.1-3.3-.1-5.05-.1v28h-10.95v-36h1.45c6.7,0,13.2.15,21.15.6l19.3,21.55v-22.15h10.95v36Z"/>
        <path class="cls-1" d="M667.38,363.09h-26.6v7.85c6.15.2,12.9.25,19,.25s13.25-.05,19.35-.65l.05,7.5c-8.05.55-15.7.75-23.6.75-8.5,0-17.35-.2-25.75-.75v-35.6c8.9-.55,18.25-.75,27.15-.75,7.35,0,14.5.2,22.05.75v7.5c-6.45-.6-14.2-.65-20.6-.65-5.8,0-11.95.05-17.65.2v7.95h26.55l.05,5.65Z"/>
        <path class="cls-1" d="M686.42,361.59c-.65-3.15-.95-5.9-.95-9,0-3.4.3-6.2.95-9.6,8-.85,15.95-1.25,23.8-1.25s16.05.2,24.15.85v6.9c-6.1-.35-12.05-.7-19.5-.7-7,0-12.6.3-18.4.75-.15,1-.25,2-.25,3.1,0,.95.1,1.8.25,2.8,12.55.85,25.25.5,38.2,2.75.65,3.35.95,6.05.95,9.35,0,3.55-.25,6.45-.95,9.95-8.1.9-16.2,1.25-24.2,1.25s-16-.2-24.05-.85v-6.85c6.2.35,12.3.6,20,.6,7,0,12.65-.25,18.1-.65.2-1.1.3-2.2.3-3.5,0-1.1-.1-2.15-.3-3.25-12.7-.7-25.2-.65-38.1-2.65Z"/>
        <path class="cls-1" d="M754.47,378.24h-10.95v-36h10.95v36Z"/>
        <path class="cls-1" d="M763.27,361.59c-.65-3.15-.95-5.9-.95-9,0-3.4.3-6.2.95-9.6,8-.85,15.95-1.25,23.8-1.25s16.05.2,24.15.85v6.9c-6.1-.35-12.05-.7-19.5-.7-7,0-12.6.3-18.4.75-.15,1-.25,2-.25,3.1,0,.95.1,1.8.25,2.8,12.55.85,25.25.5,38.2,2.75.65,3.35.95,6.05.95,9.35,0,3.55-.25,6.45-.95,9.95-8.1.9-16.2,1.25-24.2,1.25s-16-.2-24.05-.85v-6.85c6.2.35,12.3.6,20,.6,7,0,12.65-.25,18.1-.65.2-1.1.3-2.2.3-3.5,0-1.1-.1-2.15-.3-3.25-12.7-.7-25.2-.65-38.1-2.65Z"/>
      </g>
    </g>
  </g>
</svg>